<svg width="35" height="63" viewBox="0 0 35 63" fill="none" xmlns="http://www.w3.org/2000/svg">
<path d="M5.30667 12.2263C5.52486 12.663 5.96997 12.9425 6.45872 12.9425C6.94747 12.9425 7.39258 12.663 7.61077 12.2263L12.795 1.86899C12.9957 1.46727 12.9695 0.995686 12.7339 0.611434C12.4982 0.227181 12.0793 0.00012207 11.6342 0.00012207H1.29195C0.846844 0.00012207 0.427917 0.235914 0.192271 0.611434C-0.0433758 0.995686 -0.060831 1.46727 0.131177 1.86899L5.30667 12.2263ZM9.5483 2.5851L6.46745 8.75934L3.38659 2.5851H9.5483ZM6.46745 37.9713C8.18679 37.9713 9.82759 37.2901 11.0407 36.0762C12.2539 34.8623 12.9346 33.2118 12.9346 31.5001C12.9346 29.7885 12.2539 28.1379 11.0407 26.924C9.82759 25.7101 8.17806 25.029 6.46745 25.029C4.75683 25.029 3.1073 25.7101 1.89416 26.924C0.681019 28.1379 0.000262606 29.7885 0.000262606 31.5001C0.000262606 33.2118 0.681019 34.8623 1.89416 36.0762C3.1073 37.2901 4.7481 37.9713 6.46745 37.9713ZM6.46745 27.6139C7.49731 27.6139 8.48353 28.0244 9.21665 28.7492C9.94105 29.4741 10.3512 30.4696 10.3512 31.5001C10.3512 32.5306 9.94105 33.5175 9.21665 34.251C8.49226 34.9759 7.49731 35.3863 6.46745 35.3863C5.43758 35.3863 4.45136 34.9759 3.71824 34.251C2.99384 33.5262 2.58364 32.5306 2.58364 31.5001C2.58364 30.4696 2.99384 29.4828 3.71824 28.7492C4.44263 28.0244 5.43758 27.6139 6.46745 27.6139ZM1.29195 63.0001H11.6429C12.3586 63.0001 12.9346 62.4237 12.9346 61.7076V51.3503C12.9346 50.6342 12.3586 50.0578 11.6429 50.0578H1.29195C0.576287 50.0578 0.000262606 50.6342 0.000262606 51.3503V61.7076C0.000262606 62.4237 0.576287 63.0001 1.29195 63.0001ZM2.58364 52.6428H10.3512V60.4151H2.58364V52.6428ZM23.2856 55.2365V32.7926H15.9544C15.2387 32.7926 14.6627 32.2162 14.6627 31.5001C14.6627 30.784 15.2387 30.2076 15.9544 30.2076H23.2856V7.76378H15.9544C15.2387 7.76378 14.6627 7.1874 14.6627 6.47129C14.6627 5.75518 15.2387 5.1788 15.9544 5.1788H24.5773C25.293 5.1788 25.869 5.75518 25.869 6.47129V30.2076H33.2002C33.9159 30.2076 34.4919 30.784 34.4919 31.5001C34.4919 32.2162 33.9159 32.7926 33.2002 32.7926H25.869V56.529C25.869 57.2451 25.293 57.8214 24.5773 57.8214H15.9544C15.2387 57.8214 14.6627 57.2451 14.6627 56.529C14.6627 55.8129 15.2387 55.2365 15.9544 55.2365H23.2856Z" fill="white"/>
</svg>
